<svg width="28" height="28" viewBox="0 0 28 28" fill="none" xmlns="http://www.w3.org/2000/svg">
<rect width="28" height="28" rx="5" fill="#B49360" fill-opacity="0.1"/>
<path d="M19.8237 5.67664L22.3237 8.17664L20.4178 10.0833L17.9178 7.5833L19.8237 5.67664ZM10.667 17.3333H13.167L19.2395 11.2608L16.7395 8.7608L10.667 14.8333V17.3333Z" fill="#B49360"/>
<path d="M19.8333 19.8333H10.7983C10.7767 19.8333 10.7542 19.8417 10.7325 19.8417C10.705 19.8417 10.6775 19.8342 10.6492 19.8333H8.16667V8.16667H13.8725L15.5392 6.5H8.16667C7.2475 6.5 6.5 7.24667 6.5 8.16667V19.8333C6.5 20.7533 7.2475 21.5 8.16667 21.5H19.8333C20.2754 21.5 20.6993 21.3244 21.0118 21.0118C21.3244 20.6993 21.5 20.2754 21.5 19.8333V12.61L19.8333 14.2767V19.8333Z" fill="#B49360"/>
</svg>
