<svg width="30" height="30" viewBox="0 0 30 30" fill="none" xmlns="http://www.w3.org/2000/svg">
<path d="M30 15C30 15.6562 30 16.2188 29.9062 16.875C29.8125 17.4375 29.7188 18 29.625 18.5625C28.875 21.75 27.0938 24.4688 24.6562 26.5312C24.5625 26.625 24.375 26.7188 24.2812 26.8125C23.4375 27.4688 22.5 28.0312 21.4688 28.5C21.2812 28.5938 21.0938 28.6875 20.9062 28.7812C20.0625 29.1562 19.3125 29.4375 18.375 29.625C17.9062 29.7188 17.5312 29.8125 17.0625 29.9062C16.3125 30 15.6562 30 15 30C6.75 30 0 23.25 0 15C0 6.75 6.75 0 15 0C23.25 0 30 6.75 30 15Z" fill="#EF4639"/>
<path d="M29.9062 16.875C29.8125 17.4375 29.7187 18 29.625 18.5625C28.875 21.75 27.0937 24.4688 24.6562 26.5313C24.5625 26.625 24.375 26.7188 24.2812 26.8125C23.4375 27.4688 22.5 28.0313 21.4687 28.5C21.2812 28.5938 21.0937 28.6875 20.9062 28.7813C20.0625 29.1563 19.3125 29.4375 18.375 29.625C17.9062 29.7188 17.5312 29.8125 17.0625 29.9063L8.625 21.4688C8.0625 20.9062 8.0625 19.9688 8.625 19.3125L12.9375 15L8.625 10.6875C8.0625 10.125 8.0625 9.1875 8.625 8.53125C9.1875 7.96875 10.125 7.96875 10.7812 8.53125L10.9687 8.71875L11.3438 9.09375L12.5625 10.3125L12.9375 10.6875L14.1562 11.9062L14.5312 12.2813L15.1875 12.9375L19.3125 8.4375C19.875 7.875 20.8125 7.875 21.4687 8.4375L29.9062 16.875Z" fill="#E2382F"/>
<path d="M21.4688 19.2188C22.0312 19.7812 22.0312 20.7187 21.4688 21.375C21.1875 21.6562 20.8125 21.8437 20.4375 21.8437C20.0625 21.8437 19.6875 21.6562 19.4063 21.375L15 17.0625L10.6875 21.375C10.4062 21.6562 10.0313 21.8437 9.65625 21.8437C9.28125 21.8437 8.90625 21.6562 8.625 21.375C8.0625 20.8125 8.0625 19.875 8.625 19.2188L12.9375 14.9062L8.625 10.5938C8.0625 10.0313 8.0625 9.09375 8.625 8.4375C9.1875 7.875 10.125 7.875 10.7813 8.4375L15.0938 12.75L19.3125 8.4375C19.875 7.875 20.8125 7.875 21.4688 8.4375C22.0312 9 22.0312 9.9375 21.4688 10.5938L17.1562 14.9062L21.4688 19.2188Z" fill="white"/>
</svg>
