<svg width="32" height="32" viewBox="0 0 32 32" fill="none" xmlns="http://www.w3.org/2000/svg">
<path d="M32 16V16.8C31.9 17.8 31.8 18.8 31.6 19.8C30.8 23.2 28.9 26.1 26.3 28.3C26.2 28.4 26 28.5 25.9 28.6C25 29.3 24 29.9 22.9 30.4C22.7 30.5 22.5 30.6 22.3 30.7C21.9 30.9 21.5 31 21.1 31.1C20.6 31.3 20.1 31.4 19.6 31.5C18.4 31.9 17.2 32 16 32C7.2 32 0 24.8 0 16C0 7.2 7.2 0 16 0C24.8 0 32 7.2 32 16Z" fill="#26AD5F"/>
<path d="M31.9999 16.7999C31.8999 17.7999 31.7999 18.7999 31.5999 19.7999C30.7999 23.1999 28.8999 26.0999 26.2999 28.2999C26.1999 28.3999 25.9999 28.4999 25.8999 28.5999C24.9999 29.2999 23.9999 29.8999 22.8999 30.3999C22.6999 30.4999 22.4999 30.5999 22.2999 30.6999C21.8999 30.8999 21.4999 30.9999 21.0999 31.0999C21.0999 31.0999 12.3999 22.3999 12.2999 22.2999L7.1999 16.4999C6.5999 15.7999 6.5999 14.6999 7.3999 13.9999C8.0999 13.3999 9.1999 13.3999 9.8999 14.1999C9.9999 14.2999 13.8999 18.1999 13.9999 18.2999L22.1999 9.49989C22.8999 8.79989 23.9999 8.79989 24.6999 9.39989C24.6999 9.49989 31.9999 16.7999 31.9999 16.7999Z" fill="#00A053"/>
<path d="M13.5999 23C13.0999 23 12.5999 22.8 12.2999 22.4L7.1999 16.6C6.5999 15.9 6.5999 14.8 7.3999 14.1C8.0999 13.5 9.1999 13.5 9.8999 14.3L13.6999 18.7L22.1999 9.59999C22.8999 8.89999 23.9999 8.89999 24.6999 9.49999C25.3999 10.2 25.3999 11.3 24.7999 12L14.9999 22.5C14.4999 22.8 14.0999 23 13.5999 23Z" fill="white"/>
</svg>
